<?xml version="1.0" encoding="utf-8"?>
<!-- Generator: Adobe Illustrator 24.3.0, SVG Export Plug-In . SVG Version: 6.00 Build 0)  -->
<svg version="1.0" id="katman_1" xmlns="http://www.w3.org/2000/svg" xmlns:xlink="http://www.w3.org/1999/xlink" x="0px" y="0px"
	 viewBox="0 0 599.22 448.61" style="enable-background:new 0 0 599.22 448.61;" xml:space="preserve">
<style type="text/css">
	.st0{fill:#FEFEFE;}
	.st1{fill:#0028EF;}
	.st2{fill:#7F92F6;}
	.st3{fill:#7F93F6;}
	.st4{fill:#3E5CF3;}
	.st5{fill:#BEC8FA;}
	.st6{fill:#BDC7FA;}
	.st7{fill:#BAC5FA;}
</style>
<g>
	<g>
		<path class="st0" d="M426.32,201.31c0,62.03,0,124.06,0.02,186.09c0,0.9-0.2,1.1-1.1,1.1c-41.87-0.03-83.74-0.02-125.62-0.02
			c0.02-0.58,0.53-0.65,0.89-0.84c1.67-0.86,3.39-1.62,5.1-2.41c5.81-2.69,11.37-5.85,16.92-9.03c1.42-0.82,1.96-1.74,1.96-3.41
			c-0.05-43.31-0.04-86.62-0.04-129.93c0-0.52-0.01-1.04,0.01-1.56c0.05-1.47,0.3-1.71,1.74-1.48c3.8,0.6,7.55,1.38,11.26,2.4
			c3.04,0.84,6.07,1.74,9.06,2.78c0.08,0.03,0.15,0.06,0.23,0.08c0.45,0.1,0.95,0.45,1.32-0.05c0.42-0.57-0.1-0.98-0.4-1.36
			c-0.82-1.03-1.7-2.02-2.6-2.99c-10.25-10.96-22.73-18.26-37.04-22.58c-6.92-2.09-13.99-3.39-21.19-3.91
			c-12.25-0.9-24.26,0.47-36.02,4.04c-9.02,2.73-17.39,6.84-25.39,11.78c-0.56,0.35-1.14,1.07-1.79,0.75
			c-0.73-0.37-0.43-1.29-0.43-1.98c-0.01-51.47-0.01-102.94-0.01-154.41c0-1.4,0.01-2.8,0-4.2c-0.02-1.24-0.12-1.33-1.33-1.07
			c-5.55,1.21-11.05,2.62-16.52,4.16c-10.32,2.9-20.5,6.24-30.52,10.06c-0.67,0.26-1.34,0.77-2.15,0.41
			c0-7.55,0.02-15.11-0.02-22.66c0-0.86,0.14-1.13,1.08-1.12c39.08,0.03,78.16,0.03,117.24,0.03c0.08,0.14,0.05,0.26-0.08,0.36
			c-0.28,0.18-0.6,0.23-0.92,0.21c-2.56-0.13-5.11,0.22-7.66,0.28c-2.35,0.05-4.7,0.22-7.05,0.46c-0.63,0.06-0.94,0.36-0.96,0.99
			c-0.02,0.48-0.02,0.96-0.02,1.44c0,29.87-0.01,59.74,0.03,89.61c0,1.7-0.47,2.73-1.95,3.7c-5.58,3.62-10.71,7.84-15.32,12.65
			c-2.74,2.86-5.3,5.87-7.62,9.09c-0.12,0.16-0.25,0.32-0.34,0.49c-0.3,0.53-0.97,1.06-0.45,1.71c0.55,0.68,1.18,0.09,1.73-0.16
			c11.63-5.17,23.76-8.5,36.43-9.86c5.33-0.57,10.68-0.87,16.03-0.66c9.18,0.36,18.22,1.71,27.04,4.33
			c9.38,2.78,18.18,6.83,26.34,12.22c4.11,2.71,7.97,5.75,11.61,9.08c2.25,2.06,4.34,4.25,6.42,6.46c1.08,1.14,1.58,2.36,1.57,3.97
			c-0.04,40.15-0.03,80.3-0.03,120.44c0,0.48-0.01,0.96,0.01,1.44c0.02,0.51,0.13,0.96,0.66,1.17c0.59,0.24,0.88-0.19,1.19-0.55
			c2.88-3.44,5.6-6.99,8.23-10.62c7.8-10.74,14.5-22.14,20.14-34.15c6.47-13.76,11.35-28.09,14.69-42.93
			c1.46-6.48,2.64-13.01,3.47-19.6c0.62-4.91,1.08-9.84,1.36-14.79c0.1-1.78-0.03-3.59,0.42-5.35
			C426.06,201.26,426.18,201.23,426.32,201.31z"/>
		<path class="st1" d="M172.69,83.72c7.61-2.85,15.26-5.6,23.03-8.01c8.73-2.7,17.56-5.03,26.46-7.11c1.09-0.25,1.29-0.04,1.29,1.06
			c-0.03,53.18-0.02,106.37-0.02,159.55c0,0.48,0,0.95,0,1.42c0.49,0.1,0.73-0.23,1.02-0.41c11.65-7.46,24.15-12.86,37.85-15.1
			c24.58-4.02,47.7-0.2,68.88,13.35c6.54,4.18,12.21,9.39,17.14,15.41c0.37,0.45,0.67,0.79,0.22,1.43c-0.44,0.63-0.83,0.51-1.4,0.31
			c-7.08-2.52-14.31-4.46-21.75-5.61c-0.16-0.02-0.31-0.03-0.58-0.05c0,0.54,0,1.06,0,1.57c0,44.11,0,88.21,0.03,132.32
			c0,1.01-0.3,1.55-1.16,2.06c-7.41,4.41-15.04,8.41-22.9,11.96c-0.4,0.18-0.77,0.4-1.16,0.6c-0.16,0-0.32,0-0.48,0
			c-4.69-1.56-8.97-3.99-13.34-6.23c-3.38-1.73-6.65-3.67-10.02-5.41c-1.58-0.81-2.21-1.85-2.21-3.67
			c0.05-41.83,0.03-83.66,0.04-125.48c0-0.2,0.04-0.4-0.1-0.7c-2.21,0.92-4.33,2.02-6.44,3.14c-7.43,3.95-14.19,8.86-20.01,14.93
			c-12.3,12.83-19.95,27.94-22.03,45.73c-0.36,3.1-0.56,6.22-0.59,9.32c-0.03,2.98,0.08,5.99,0.51,8.96
			c0.06,0.44,0.12,0.87,0.11,1.31c0,0.82-0.38,1.36-1.13,1.66c-0.75,0.3-1.11-0.28-1.49-0.72c-4.38-5.1-8.46-10.43-12.29-15.96
			c-6.26-9.06-11.85-18.52-16.65-28.44c-5.77-11.91-10.37-24.25-13.84-37.02c-2.49-9.16-4.33-18.45-5.55-27.86
			c-0.61-4.71-1.18-9.43-1.23-14.2c-0.01-1.47-0.08-2.95-0.09-4.43c0-0.55,0-1.11,0-1.66c0-0.64,0-1.27,0-1.91
			c-0.08-1.27,0.15-2.56-0.12-3.83C172.69,158.59,172.69,121.16,172.69,83.72z"/>
		<path class="st0" d="M172.89,203.48c1.35,30.75,8.94,59.87,22.93,87.29c7.36,14.43,16.3,27.82,26.78,40.18
			c0.31,0.36,0.42,1.25,1.32,0.82c0.91-0.44,0.89-1.16,0.78-2c-1.42-11.51-0.42-22.83,3.23-33.82
			c7.02-21.11,20.77-36.53,40.36-46.86c1.83-0.96,3.68-1.89,5.76-2.66c0,0.62,0,1.14,0,1.65c0,41.98,0,83.97-0.03,125.95
			c0,1.06,0.29,1.63,1.24,2.14c7.7,4.12,15.29,8.45,23.33,11.91c0.2,0.08,0.49,0.09,0.54,0.39c-41.79,0-83.58,0-125.38,0.02
			c-0.9,0-1.1-0.2-1.1-1.1c0.02-61.31,0.02-122.62,0.02-183.93C172.76,203.36,172.83,203.36,172.89,203.48z"/>
		<path class="st0" d="M307.78,59.97c39.15,0,78.31,0,117.46-0.02c0.9,0,1.11,0.2,1.1,1.1c-0.04,7.56-0.02,15.12-0.02,22.68
			c-0.12,0.09-0.26,0.14-0.41,0.16c-2.3-0.57-4.44-1.57-6.65-2.37c-13.77-5-27.8-9.15-42.09-12.39c-1.19-0.27-1.31-0.17-1.35,1.05
			c-0.01,0.4,0,0.8,0,1.2c0,24.47,0,48.95,0,73.42c0,2.95-0.02,3-2.71,2c-8.78-3.26-17.83-5.37-27.13-6.44
			c-2.74-0.31-5.48-0.54-8.24-0.62c-2.23-0.06-4.47-0.28-6.71-0.2c-1.6,0.05-3.18,0.32-4.79,0.24c-1.5-0.08-1.74-0.29-1.79-1.76
			c-0.02-0.48-0.01-0.96-0.01-1.44c0-24.23,0-48.47,0-72.7c0-0.4-0.03-0.8,0-1.2c0.07-0.93-0.28-1.35-1.28-1.42
			c-2.67-0.18-5.34-0.29-8.01-0.47c-2.42-0.16-4.87-0.01-7.27-0.44C307.75,60.25,307.71,60.13,307.78,59.97z"/>
		<path class="st2" d="M426.07,83.74c0.08,0,0.17-0.01,0.25-0.01c0,38.39,0,76.79,0,115.18c-0.17,0.06-0.31,0.01-0.4-0.14
			c-0.29-0.56-0.23-1.17-0.23-1.77c0-37.11,0-74.21,0-111.32C425.7,85.02,425.56,84.31,426.07,83.74z"/>
		<path class="st3" d="M294.11,59.97c3.6,0,7.2,0,10.8,0c0.07,0.17,0.03,0.3-0.13,0.39c-0.32,0.18-0.68,0.21-1.04,0.22
			c-2.82,0.02-5.64,0.02-8.47,0c-0.36,0-0.72-0.03-1.04-0.22C294.08,60.26,294.04,60.13,294.11,59.97z"/>
		<path class="st4" d="M172.69,196.03c0.5,1.26,0.14,2.57,0.21,3.86c-0.08,0.09-0.15,0.08-0.21-0.02
			C172.69,198.59,172.69,197.31,172.69,196.03z"/>
		<path class="st5" d="M294.11,59.97c-0.01,0.07-0.02,0.13-0.02,0.2c-1.03,0.63-2.07,0.61-3.11,0.01c0.01-0.07,0.02-0.14,0.01-0.21
			C292.03,59.97,293.07,59.97,294.11,59.97z"/>
		<path class="st5" d="M304.92,60.18c-0.01-0.07-0.02-0.14-0.01-0.21c0.96,0,1.92,0,2.88,0c0.01,0.07,0.01,0.13,0.01,0.2
			C306.84,60.79,305.88,60.77,304.92,60.18z"/>
		<path class="st6" d="M426.13,198.93c0.07,0.01,0.13,0,0.2-0.02c0,0.8,0,1.6,0,2.4l-0.1,0.02l-0.1,0
			C425.55,200.52,425.55,199.72,426.13,198.93z"/>
		<path class="st2" d="M172.69,199.87c0.07,0.01,0.14,0.01,0.21,0.02c-0.01,0.64-0.02,1.28-0.02,1.92
			c-0.07,0.08-0.14,0.08-0.19-0.02C172.69,201.15,172.69,200.51,172.69,199.87z"/>
		<path class="st7" d="M172.69,201.79c0.06,0.02,0.13,0.02,0.19,0.02c0,0.56,0.01,1.11,0.01,1.67c-0.07,0-0.14,0-0.2-0.01
			C172.69,202.91,172.69,202.35,172.69,201.79z"/>
		<path class="st1" d="M426.13,198.93c0,0.8,0,1.6-0.01,2.39c-0.53,16.51-2.9,32.76-7.26,48.7c-8.03,29.42-21.82,55.87-41.23,79.38
			c-0.24,0.29-0.39,0.89-1,0.55c-0.56-0.31-1.36-0.41-1.19-1.37c0.05-0.27,0.01-0.56,0.01-0.84c0-40.59-0.01-81.18,0.04-121.77
			c0-1.33-0.47-2.23-1.3-3.15c-13.04-14.49-29.12-23.95-47.92-28.84c-12.1-3.15-24.39-4.03-36.84-2.96
			c-13.9,1.2-27.16,4.76-39.85,10.5c-0.39,0.18-0.79,0.59-1.21-0.06c-0.36-0.56-0.62-0.94-0.13-1.64
			c6.71-9.48,14.99-17.32,24.73-23.61c0.79-0.51,1.11-1.03,1.11-1.99c-0.03-30.59-0.01-61.18-0.05-91.77c0-1.21,0.32-1.49,1.5-1.56
			c5.14-0.29,10.29-0.57,15.44-0.7c1.04,0,2.07-0.01,3.11-0.01c3.61,0,7.22,0.01,10.83,0.01c0.96,0,1.92-0.01,2.88-0.01
			c5.23,0.15,10.46,0.4,15.68,0.72c1.06,0.07,1.37,0.3,1.37,1.41c-0.04,25.12-0.03,50.23-0.03,75.35c0,1.81,0,1.83,1.78,1.75
			c16.62-0.76,32.72,1.67,48.26,7.68c0.14,0.06,0.3,0.09,0.57,0.17c0-26.31,0-52.55,0-78.89c5.03,1.1,9.9,2.3,14.75,3.6
			c11.99,3.2,23.77,7.07,35.35,11.53c0.19,0.07,0.36,0.16,0.55,0.25c0,35.16,0.01,70.32,0.01,105.48
			C426.09,192.45,426.11,195.69,426.13,198.93z"/>
	</g>
</g>
</svg>
